<svg width="48" height="48" viewBox="0 0 48 48" fill="none" xmlns="http://www.w3.org/2000/svg">
<path d="M24 47C11.3 47 1 36.7 1 24C1 11.3 11.3 1 24 1C36.7 1 47 11.3 47 24C47 36.7 36.7 47 24 47Z" fill="#0274D9" stroke="#5F5555" stroke-width="0.5"/>
<path fill-rule="evenodd" clip-rule="evenodd" d="M27 15.5C27 18.5 24.5 21 21.5 21C18.5 21 16 18.5 16 15.5C16 12.5 18.5 10 21.5 10C24.5 10 27 12.5 27 15.5ZM17 15.5C17 18 19 20 21.5 20C24 20 26 18 26 15.5C26 13 24 11 21.5 11C19 11 17 13 17 15.5ZM36.1 15.7C36.1667 15.7 36.2333 15.7333 36.3 15.8C36.3667 15.8 36.4333 15.8333 36.5 15.9L36.6 16V16.7L37 16.9L37.4 16.6C37.4667 16.5333 37.5 16.4667 37.5 16.4H37.9L38.1 16.6L39.2 17.6C39.2 17.6667 39.2333 17.7333 39.3 17.8V18.2L39.2 18.3L38.8 18.7L39 19.1H39.7C39.7667 19.1667 39.8 19.2333 39.8 19.3C39.8667 19.3 39.9 19.3333 39.9 19.4C39.9667 19.4667 40 19.5333 40 19.6V21.1C40 21.1667 39.9667 21.2333 39.9 21.3C39.9 21.3667 39.8667 21.4333 39.8 21.5L39.7 21.6H39L38.8 22L39.2 22.4C39.2 22.4667 39.2333 22.5 39.3 22.5V22.9C39.2333 22.9667 39.2 23.0333 39.2 23.1L38.1 24.2C38.0333 24.2 37.9667 24.2333 37.9 24.3H37.5C37.5 24.2333 37.4667 24.2 37.4 24.2L37 23.8L36.6 24V24.7L36.5 24.8C36.4333 24.8667 36.3667 24.9 36.3 24.9C36.2333 24.9667 36.1667 25 36.1 25H34.6C34.5333 25 34.4667 24.9667 34.4 24.9C34.3333 24.9 34.3 24.8667 34.3 24.8C34.2333 24.8 34.1667 24.7667 34.1 24.7V24L33.7 23.8L33.3 24.2L33.2 24.3H32.8C32.7333 24.2333 32.6667 24.2 32.6 24.2L31.6 23.1L31.4 22.9V22.5C31.4667 22.5 31.5333 22.4667 31.6 22.4L31.9 22L31.7 21.6H31L30.9 21.5C30.8333 21.4333 30.8 21.3667 30.8 21.3C30.7333 21.2333 30.7 21.1667 30.7 21.1V19.6C30.7 19.5333 30.7333 19.4667 30.8 19.4C30.8 19.3333 30.8333 19.3 30.9 19.3C30.9 19.2333 30.9333 19.1667 31 19.1H31.7L31.9 18.7L31.6 18.3C31.5333 18.3 31.4667 18.2667 31.4 18.2V17.8L31.6 17.6L32.6 16.6L32.8 16.4H33.2C33.2667 16.4667 33.3 16.5333 33.3 16.6L33.7 16.9L34.1 16.7V16C34.1667 15.9333 34.2333 15.9 34.3 15.9C34.3 15.8333 34.3333 15.8 34.4 15.8C34.4667 15.7333 34.5333 15.7 34.6 15.7H36.1ZM35.1 17.1V17.2C35.0333 17.2667 35 17.3333 35 17.4C34.9333 17.4 34.9 17.4333 34.9 17.5C34.8333 17.5 34.7667 17.5333 34.7 17.6C34.3667 17.6667 34.0667 17.7667 33.8 17.9C33.8 17.9667 33.7667 18 33.7 18H33.5C33.4333 18 33.3667 17.9667 33.3 17.9L33.2 17.8L33 17.6L32.6 18L32.9 18.2V18.3C32.9667 18.3667 33 18.4333 33 18.5V18.7C33 18.7667 32.9667 18.8 32.9 18.8C32.7667 19.0667 32.6667 19.3667 32.6 19.7C32.5333 19.7667 32.5 19.8333 32.5 19.9C32.4333 19.9 32.4 19.9333 32.4 20C32.3333 20 32.2667 20.0333 32.2 20.1H31.7V20.6H32.2C32.2667 20.6667 32.3333 20.7 32.4 20.7C32.4 20.7667 32.4333 20.8 32.5 20.8C32.5 20.8667 32.5333 20.9333 32.6 21C32.6667 21.3333 32.7667 21.6333 32.9 21.9L33 22V22.2C33 22.2667 32.9667 22.3333 32.9 22.4V22.5L32.6 22.7L33 23.1L33.2 22.9L33.3 22.8C33.3667 22.7333 33.4333 22.7 33.5 22.7H33.7C33.7667 22.7 33.8 22.7333 33.8 22.8C34.0667 22.9333 34.3667 23.0667 34.7 23.2H34.9C34.9 23.2667 34.9333 23.3 35 23.3C35 23.3667 35.0333 23.4333 35.1 23.5V24H35.6V23.5C35.6667 23.4333 35.7 23.3667 35.7 23.3C35.7667 23.3 35.8 23.2667 35.8 23.2H36C36.3333 23.0667 36.6333 22.9333 36.9 22.8L37 22.7H37.2C37.2667 22.7 37.3333 22.7333 37.4 22.8L37.5 22.9L37.7 23.1L38.1 22.7L37.9 22.5L37.8 22.4C37.7333 22.3333 37.7 22.2667 37.7 22.2V22L37.8 21.9C37.9333 21.6333 38.0667 21.3333 38.2 21V20.8C38.2667 20.8 38.3 20.7667 38.3 20.7C38.3667 20.7 38.4333 20.6667 38.5 20.6H39V20.1H38.5C38.4333 20.0333 38.3667 20 38.3 20C38.3 19.9333 38.2667 19.9 38.2 19.9V19.7C38.0667 19.3667 37.9333 19.0667 37.8 18.8C37.7333 18.8 37.7 18.7667 37.7 18.7V18.5C37.7 18.4333 37.7333 18.3667 37.8 18.3L37.9 18.2L38.1 18L37.7 17.6L37.5 17.9H37.4C37.3333 17.9667 37.2667 18 37.2 18H37L36.9 17.9C36.6333 17.7667 36.3333 17.6667 36 17.6C35.9333 17.5333 35.8667 17.5 35.8 17.5C35.8 17.4333 35.7667 17.4 35.7 17.4C35.7 17.3333 35.6667 17.2667 35.6 17.2V16.7H35.1V17.1ZM37 20.4C37 21.3 36.3 22.1 35.4 22.1C34.5 22.1 33.7 21.3 33.7 20.4C33.7 19.5 34.5 18.8 35.4 18.8C36.3 18.8 37 19.5 37 20.4ZM34.7 20.4C34.7 20.8 35 21.1 35.4 21.1C35.7 21.1 36 20.8 36 20.4C36 20.1 35.7 19.8 35.4 19.8C35 19.8 34.7 20.1 34.7 20.4ZM24.5 22.1C26.5 22.1 28.2 22.8 29.6 24.1H29.4C29 24.1 28.7 24.2 28.5 24.4C27.4 23.6 26 23.1 24.5 23.1H18.5C14.9 23.1 12 26 12 29.6V33.6H15V29.4C15.0667 29.3333 15.1 29.2667 15.1 29.2C15.1667 29.2 15.2333 29.1667 15.3 29.1H15.7C15.7667 29.1667 15.8333 29.2 15.9 29.2C15.9 29.2667 15.9333 29.3333 16 29.4V33.6H23.4C23.6 33.9 24 34.1 24.4 34.1C24.2667 34.2333 24.1667 34.4 24.1 34.6H11.5C11.2 34.6 11 34.4 11 34.1V29.6C11 25.4 14.4 22.1 18.5 22.1H24.5ZM31.6 25.1H31.8C31.8667 25.1 31.9 25.1333 31.9 25.2L32.1 25.4V26.5C32.4333 26.5667 32.7333 26.6667 33 26.8L33.6 26.2C33.6667 26.1333 33.7333 26.1 33.8 26.1C33.8667 26.0333 33.9333 26 34 26C34.0667 26 34.1333 26.0333 34.2 26.1C34.2667 26.1 34.3 26.1333 34.3 26.2L35.9 27.7C35.9 27.7667 35.9333 27.8333 36 27.9V28.3L35.9 28.4L35.2 29.1C35.4 29.3667 35.5333 29.6667 35.6 30H36.7C36.7667 30 36.8333 30.0333 36.9 30.1C36.9 30.1667 36.9333 30.2333 37 30.3V32.8C36.9333 32.8667 36.9 32.9333 36.9 33C36.8333 33.0667 36.7667 33.1 36.7 33.1C36.6333 33.1667 36.5667 33.2 36.5 33.2H35.6C35.5333 33.4667 35.4 33.7333 35.2 34L35.9 34.7C35.9 34.7667 35.9333 34.8 36 34.8V35.2C35.9333 35.2667 35.9 35.3333 35.9 35.4L34.3 36.9C34.3 36.9667 34.2667 37 34.2 37C34.1333 37.0667 34.0667 37.1 34 37.1C33.9333 37.1 33.8667 37.0667 33.8 37C33.7333 36.9333 33.6667 36.9 33.6 36.9L33 36.3C32.7333 36.4333 32.4333 36.5667 32.1 36.7V37.8C32.0333 37.8 31.9667 37.8333 31.9 37.9C31.9 37.9667 31.8667 38 31.8 38C31.7333 38.0667 31.6667 38.1 31.6 38.1H29.4C29.3333 38.1 29.2667 38.0667 29.2 38C29.1333 38 29.1 37.9667 29.1 37.9C29.0333 37.8333 28.9667 37.8 28.9 37.8V36.7C28.5667 36.5667 28.2667 36.4333 28 36.3L27.4 36.9C27.3333 36.9667 27.2667 37 27.2 37C27.1333 37.0667 27.0667 37.1 27 37.1C26.9333 37.1 26.8667 37.0667 26.8 37C26.7333 37 26.7 36.9667 26.7 36.9L25.1 35.4C25.1 35.3333 25.0667 35.2667 25 35.2V34.8C25.0667 34.8 25.1 34.7667 25.1 34.7L25.8 34.1C25.6 33.7667 25.4667 33.4667 25.4 33.2H24.5C24.4333 33.2 24.3667 33.1667 24.3 33.1C24.2333 33.1 24.1667 33.0667 24.1 33C24.1 32.9333 24.0667 32.8667 24 32.8V30.3C24.0667 30.2333 24.1 30.1667 24.1 30.1C24.1667 30.0333 24.2333 30 24.3 30H25.4C25.4667 29.6667 25.6 29.3667 25.8 29.1L25.1 28.4L25 28.3V27.9C25.0667 27.8333 25.1 27.7667 25.1 27.7L26.7 26.2C26.7 26.1333 26.7333 26.1 26.8 26.1C26.8667 26.0333 26.9333 26 27 26C27.0667 26 27.1333 26.0333 27.2 26.1C27.2667 26.1667 27.3333 26.2 27.4 26.2L28 26.8C28.2667 26.6667 28.5667 26.5667 28.9 26.5V25.4L29.1 25.2C29.1 25.1333 29.1333 25.1 29.2 25.1H29.4H31.6ZM29.9 26.8V26.9C29.9 26.9667 29.8667 27.0333 29.8 27.1C29.8 27.1667 29.7667 27.2 29.7 27.2C29.6333 27.2667 29.5667 27.3 29.5 27.3C29.0333 27.3667 28.6 27.5333 28.2 27.8C28.1333 27.8667 28.0667 27.9 28 27.9H27.7L27.6 27.8L27 27.3L26.2 28.1L26.7 28.6L26.8 28.7C26.8667 28.7667 26.9 28.8333 26.9 28.9V29.1C26.8333 29.1 26.8 29.1333 26.8 29.2C26.5333 29.6667 26.3333 30.1333 26.2 30.6V30.7L26 30.9H25.9C25.8333 30.9667 25.7667 31 25.7 31H25V32.2H25.9C25.9667 32.2 26.0333 32.2333 26.1 32.3L26.2 32.4V32.5C26.3333 33.0333 26.5333 33.5 26.8 33.9C26.8 33.9667 26.8333 34.0333 26.9 34.1V34.2C26.8333 34.2667 26.8 34.3333 26.8 34.4C26.8 34.4667 26.7667 34.5 26.7 34.5L26.2 35L27 35.9L27.6 35.4C27.6 35.3333 27.6333 35.3 27.7 35.3C27.7667 35.2333 27.8333 35.2 27.9 35.2H28C28.0667 35.2 28.1333 35.2333 28.2 35.3C28.6 35.5667 29.0333 35.7667 29.5 35.9H29.7L29.8 36C29.8667 36.0667 29.9 36.1333 29.9 36.2V37.1H31.1V36.2C31.1667 36.1333 31.2 36.0667 31.2 36C31.2667 36 31.3 35.9667 31.3 35.9H31.5C31.9667 35.7667 32.4333 35.5667 32.9 35.3C32.9 35.2333 32.9333 35.2 33 35.2H33.2C33.2667 35.2 33.3 35.2333 33.3 35.3C33.3667 35.3 33.4333 35.3333 33.5 35.4L34 35.9L34.8 35L34.3 34.5L34.2 34.4V33.9C34.4667 33.5 34.6667 33.0333 34.8 32.5L34.9 32.4C34.9 32.3333 34.9333 32.3 35 32.3L35.1 32.2H36V31H35.3C35.2333 31 35.1667 30.9667 35.1 30.9H35C34.9333 30.8333 34.9 30.7667 34.9 30.7C34.8333 30.7 34.8 30.6667 34.8 30.6C34.6667 30.1333 34.4667 29.6667 34.2 29.2V28.7C34.2667 28.7 34.3 28.6667 34.3 28.6L34.8 28.1L34 27.3L33.5 27.8C33.4333 27.8 33.3667 27.8333 33.3 27.9H33C32.9333 27.9 32.9 27.8667 32.9 27.8C32.4333 27.5333 31.9667 27.3667 31.5 27.3C31.4333 27.2333 31.3667 27.2 31.3 27.2L31.2 27.1C31.2 27.0333 31.1667 26.9667 31.1 26.9V26.1H29.9V26.8ZM33 31.5C33 32.9 31.9 34 30.5 34C29.1 34 28 32.9 28 31.5C28 30.2 29.1 29 30.5 29C31.9 29 33 30.2 33 31.5ZM29 31.5C29 32.4 29.7 33 30.5 33C31.3 33 32 32.4 32 31.5C32 30.7 31.3 30 30.5 30C29.7 30 29 30.7 29 31.5Z" fill="white"/>
</svg>
