<svg width="145" height="70" viewBox="0 0 145 70" fill="none" xmlns="http://www.w3.org/2000/svg">
<path d="M28.3587 10.5166C30.3633 4.40515 36.8435 0.828219 43.3834 0.0790108C48.5997 -0.212078 54.2666 0.543367 58.3917 3.75921C61.2236 5.77604 62.3067 9.07505 63.2865 12.119C64.8875 12.119 66.4937 12.1537 68.0992 12.2576C68.3675 8.34178 71.9858 5.38238 75.7393 4.10574C78.0631 3.22555 80.2747 4.45228 82.3084 5.37406C84.0372 4.59782 85.5664 3.12158 87.6525 3.39327C89.4396 3.20545 91.2319 4.79881 92.9301 3.86456C95.4481 2.56852 98.7069 2.16654 101.228 3.68436C103.864 4.82654 104.763 7.60713 105.449 10.0121C110.741 8.3002 117.085 7.9398 121.757 11.2943C123.124 10.7329 124.478 10.1368 125.831 9.53386C126.811 5.34079 131.78 2.58931 136.219 3.6705C141.128 4.64772 144.304 10.3933 141.115 14.3784C141.877 16.8042 142.087 19.3962 141.084 21.8012C143.058 23.617 145.204 25.8141 144.74 28.6141C145.106 32.4052 142.078 35.42 138.956 37.4153C140.959 40.2431 139.725 43.6329 140.883 46.6616C141.64 49.5725 141.055 52.9339 138.53 54.993C135.062 58.4313 129.561 57.924 124.979 58.7023C124.142 58.2026 123.306 57.7043 122.47 57.2253C117.806 59.2616 112.042 59.6365 107.752 56.6071C106.063 58.0917 104.031 59.159 101.803 59.7696C99.5231 62.6722 96.5207 65.5775 92.5421 66.2221C88.6996 66.3482 86.0239 63.1386 85.3362 59.9096C81.4795 61.0324 77.504 60.5271 73.7512 59.3267C70.4685 61.767 65.9115 62.0567 62.0166 60.8439C60.3506 63.8587 58.0037 66.6241 54.653 68.1412C47.5077 71.4534 37.6873 70.3458 32.5592 64.3369C28.2772 59.4369 28.9791 51.7716 34.0242 47.5501C33.2768 46.033 32.7005 44.4514 32.3881 42.8171C31.3783 42.5399 30.379 42.2544 29.3827 41.9854C28.426 42.4498 27.4678 42.9142 26.5201 43.3861C21.4593 43.4007 16.3402 42.9218 11.3847 44.143C9.98706 43.2129 8.31956 42.5073 7.40098 41.1066C6.53397 39.672 6.71335 37.9878 6.66925 36.4139C0.196572 34.6535 -1.90443 26.2673 2.58832 21.8178C5.36948 19.0379 9.68062 18.5805 13.5448 18.7461C15.9896 17.6442 18.8821 16.1679 21.4974 17.8521C24.7801 19.1835 24.3159 22.96 25.9976 25.3733C28.4955 26.9181 31.2894 24.7426 33.9816 24.7356C28.5605 22.1054 27.0507 15.6807 28.3587 10.5166Z" fill="#010102"/>
<path d="M41.3915 4.90416C45.7707 3.69822 50.803 3.78832 54.7995 5.99228C59.0217 8.16852 60.3895 13.9418 57.497 17.5457C56.2944 19.0289 54.2913 19.6042 52.5333 20.3035C54.6784 25.55 57.9895 31.4965 64.2238 33.189C67.8256 34.0976 70.6531 30.7986 74.1488 31.1098C76.0988 31.1569 75.9501 33.417 76.1145 34.7054C72.8789 39.3206 65.8531 40.1246 60.8006 37.8166C55.7338 35.4124 52.4683 30.6926 50.4181 25.9173C49.6034 24.0114 48.945 22.0625 48.2521 20.1233C47.9292 20.1662 47.2715 20.2411 46.9516 20.2827C47.0271 21.4332 47.1093 22.5906 47.1982 23.748C47.9912 24.08 48.782 24.4134 49.581 24.7516C49.3785 25.6041 49.1625 26.4655 48.9315 27.3159C47.483 29.6668 45.2833 31.5575 42.7271 32.8459C41.9954 32.2007 41.0753 31.7079 40.5962 30.8693C41.2024 29.2912 42.5463 27.9605 42.6053 26.2119C42.7115 23.204 42.254 20.203 42.3138 17.1951C42.3953 15.4069 41.0215 14.0208 40.0043 12.6554C41.5881 10.6733 44.2863 11.0198 46.625 11.0683C46.8581 11.4426 47.0958 11.8168 47.3425 12.198C47.0203 13.7852 46.8798 15.3917 46.82 17.0065C48.9509 16.9996 51.5512 17.256 52.9399 15.3917C55.1224 13.1323 53.0969 9.62674 50.2791 8.84357C45.9433 7.47684 39.6866 8.47624 37.9541 12.9257C38.6791 15.4416 41.3549 17.2505 41.1762 19.9881C40.0252 20.3894 38.8069 21.3257 37.5445 20.6881C34.01 18.997 32.8059 14.7263 33.9487 11.3802C34.8448 8.11931 38.0214 5.80446 41.3915 4.90416Z" fill="#F9FCFA"/>
<path d="M96.4609 7.11504C97.6119 6.72554 98.8526 6.98336 100.049 7.01108C101.059 8.68831 101.723 11.2596 99.8325 12.618C98.3377 13.1524 96.1335 13.0685 95.4533 11.4814C94.3621 10.0398 95.348 8.25168 96.4609 7.11504Z" fill="#F4FAF9"/>
<path d="M73.8222 11.4052C74.7856 9.49921 76.9389 8.48733 78.9181 7.67644C81.6103 13.3665 80.0617 19.8052 81.28 25.7725C81.9459 26.5002 82.715 27.1517 83.455 27.8309C83.4767 28.2045 83.5148 28.9606 83.5365 29.3349C80.9279 30.4784 77.9764 30.1804 75.1877 30.0002C75.1646 29.5781 75.1279 28.7243 75.1063 28.3022C75.6369 27.5467 76.1751 26.7913 76.5854 25.9749C76.48 21.8719 75.8761 17.7883 75.9568 13.6798C75.2423 12.9368 73.3812 12.7352 73.8222 11.4052ZM84.0851 10.1854C85.6307 8.95169 87.2108 7.63486 89.2714 7.23981C90.8717 10.5457 90.5794 14.2606 90.9614 17.7953C91.2454 20.9141 90.2588 24.6345 92.9869 27.0477H95.7082C96.0663 26.6534 96.7778 25.8702 97.1276 25.4821C97.1485 23.3883 97.1485 21.2959 97.0454 19.2084C96.3802 19.0559 95.0498 18.7593 94.3845 18.6068C95.0124 16.1049 97.4191 14.6355 99.8108 13.7193C101.441 17.2401 100.669 21.1698 101.455 24.8569C102.253 25.6262 103.061 26.3955 103.876 27.1649C103.846 27.5045 103.795 28.1705 103.771 28.5032C101.357 28.9211 98.9042 29.1061 96.4534 29.1339C95.6903 28.5995 94.9287 28.0866 94.173 27.5599C92.3426 30.6933 87.8879 29.7368 84.8302 29.1193C85.4805 27.449 86.9828 25.9728 86.7369 24.0862C86.5882 21.0859 86.3632 18.0856 86.2062 15.0847C86.0949 14.3639 85.997 13.65 85.914 12.9348C84.3317 12.6797 84.1359 11.419 84.0851 10.1854Z" fill="#F8FCF9"/>
<path d="M131.98 9.08337C133.52 6.36654 139.043 7.64179 138.236 10.9339C137.219 12.5557 135.156 11.7656 133.549 11.8557C135.282 14.0319 138.616 16.0279 137.488 19.1537C136.151 22.0632 132.234 22.3002 129.377 23.1735C129.229 23.4715 128.928 24.0675 128.779 24.3718C131.866 25.8411 135.281 23.5401 138.385 24.9401C139.895 25.4253 140.456 26.9299 141.081 28.156C140.02 32.952 134.214 34.8157 129.519 34.4837C127.523 34.1579 124.885 33.8946 123.846 32.0579C122.911 30.3807 124.623 28.3223 126.559 28.648C128.248 29.7431 129.705 31.1452 131.574 32.0032C133.286 31.4009 136.38 31.1368 135.819 28.7659C134.893 27.5738 133.166 27.7262 131.791 27.8302C129.72 27.9827 127.643 27.9827 125.565 27.9404C125.027 27.4421 124.495 26.9431 123.965 26.451C123.956 25.8134 123.956 25.1827 123.956 24.5596C124.78 23.8596 125.608 23.1589 126.453 22.4804C125.503 21.4755 124.053 20.6992 123.799 19.2909C123.254 17.7246 124.219 16.2705 124.852 14.8899C127.133 13.7394 129.629 13.0949 132.192 12.7691C131.83 11.5847 130.776 10.1361 131.98 9.08337Z" fill="#F6FAF7"/>
<path d="M112 14.8144C113.809 13.7609 116.2 12.347 118.285 13.65C120.543 15.0708 120.23 17.8361 120.452 20.0332C120.355 21.9045 122.529 22.82 122.672 24.6351C120.796 26.4856 118.928 29.6128 115.669 28.4955C116.259 24.8639 117.321 20.9064 115.467 17.4411C114.323 17.7128 113.202 17.9955 112.065 18.2658C111.767 19.7268 111.207 21.1906 111.429 22.7001C111.624 24.7169 113.649 25.8674 114.643 27.537C112.043 28.7159 109.144 28.7229 106.324 28.5766C106.032 28.2447 105.442 27.5724 105.151 27.239C105.869 26.5459 106.595 25.8674 107.356 25.2146C107.559 24.6469 107.776 24.0925 107.984 23.5297C107.656 22.0327 107.505 20.5148 107.415 18.997C106.854 18.9 105.749 18.7059 105.188 18.6089C105.203 17.5416 105.486 16.5221 105.906 15.5455C107.184 14.7485 108.454 13.9376 109.762 13.1669C110.568 14.0139 111.121 15.0036 111.66 16.0224C111.746 15.723 111.919 15.12 112 14.8144Z" fill="#F8FBF9"/>
<path d="M127.853 17.6705C128.421 15.7022 130.889 15.8352 132.605 16.0903C133.159 16.8748 133.608 17.7051 133.936 18.6075C132.733 19.2798 131.447 19.7927 130.152 20.2847C129.251 19.5972 127.128 19.1814 127.853 17.6705Z" fill="#030207"/>
<path d="M62.5511 16.7827C65.833 15.287 70.3175 16.3059 72.0344 19.4094C73.5815 22.5365 73.6645 26.7074 70.8617 29.251C68.8062 31.3579 65.2941 31.1223 62.5892 30.5124C56.8938 28.1975 56.8183 19.1121 62.5511 16.7827Z" fill="#F8FBF6"/>
<path d="M63.4704 20.3873C65.0713 18.7254 68.4041 19.7982 68.6866 21.9745C68.9251 23.7695 69.2988 26.2438 67.1918 27.2557C65.7186 27.4435 63.7394 27.6091 63.0503 26.0636C62.1467 24.351 61.9688 21.8352 63.4704 20.3873Z" fill="#020103"/>
<path d="M16.6444 22.9863C17.7199 21.8719 19.0518 21.1566 20.7036 21.4616C20.6954 22.723 20.9062 24.22 19.5825 25.0101C18.409 25.2735 17.2049 25.2943 16.0165 25.3927C16.1877 28.0388 16.1511 30.6933 16.3977 33.3346C16.9067 33.9237 17.4217 34.5204 17.9382 35.122C16.5248 36.8976 15.0755 39.2326 12.3026 39.0323C12.7959 36.2163 14.4634 33.0504 12.408 30.4382C11.1972 32.191 8.01314 31.9352 6.81801 30.3079C5.10641 28.499 5.46442 25.3109 7.6626 23.9587C10.2614 22.2094 13.6771 23.2844 16.6444 22.9863Z" fill="#F2FAF9"/>
<path d="M8.48999 28.447C8.80466 27.3257 8.6021 25.8203 10.0304 25.3428C10.9946 25.155 11.9745 25.0656 12.9685 25.0656C13.0358 26.417 13.133 27.7755 13.2668 29.1408C11.7644 28.4616 10.0969 28.551 8.48999 28.447Z" fill="#030408"/>
<path d="M19.5825 25.0094C20.1274 25.1972 21.2179 25.5652 21.7724 25.7454C22.049 27.187 22.0654 28.6633 22.185 30.1326C23.8667 29.3411 25.594 29.0576 27.251 30.0702C27.4222 31.4078 27.5732 32.7441 27.6846 34.0907C28.139 34.6846 28.6031 35.289 29.068 35.8975C28.2317 36.8075 27.3706 37.694 26.4677 38.552C25.9289 38.4543 24.8623 38.2609 24.3226 38.1632C25.1074 36.1463 25.7114 33.7975 24.2554 31.8916C23.5595 32.1196 22.901 32.4301 22.2463 32.7364C22.262 33.7005 22.3046 34.6777 22.3808 35.648C22.9108 36.452 23.4639 37.249 24.0468 38.0308C22.268 38.2595 20.4749 38.405 18.6804 38.4404C18.6422 38.1763 18.5682 37.6441 18.5309 37.3724C18.9943 36.7153 19.4577 36.0694 19.8987 35.4131C19.3538 33.2853 19.3897 31.0883 19.3837 28.9183C16.7199 28.3438 19.0817 26.347 19.5825 25.0094Z" fill="#F2F9F8"/>
<path d="M32.0032 29.224C34.2918 28.8033 37.431 28.9883 37.9669 31.615C38.8638 34.6084 34.5586 34.2348 32.5406 34.3173C32.6467 34.6209 32.8627 35.2308 32.9741 35.5371C34.7021 35.5032 36.2911 34.7962 37.9968 34.6153C38.573 38.4002 31.4949 38.9754 30.388 35.6141C29.0366 33.354 30.1137 30.852 32.0032 29.224Z" fill="#F1FBF9"/>
<path d="M47.3776 35.6134C48.9397 35.8282 50.3516 33.9708 51.8241 35.0229C53.8286 36.5823 55.0462 39.0704 54.9498 41.5045C54.2913 42.0097 53.5357 42.3708 52.7964 42.752C50.9122 41.2951 49.0212 39.7718 46.6766 39.024C45.7632 39.3275 44.8454 39.6332 43.941 39.9451C43.8214 40.9847 42.5732 42.3784 44.0905 43.0001C47.9763 45.0876 52.7232 45.552 56.2817 48.2619C58.3887 50.8754 59.1226 54.1322 58.7855 57.3466C56.5433 65.3377 44.4739 67.507 38.2546 62.2127C34.3673 59.2394 34.3306 52.3988 39.0095 50.0756C41.4603 48.6701 45.0412 48.6895 46.903 50.942C46.5592 51.6988 46.2244 52.4598 45.8873 53.2222C44.2213 53.7503 42.1808 53.8321 41.029 55.2182C40.4528 57.1727 41.3063 59.5035 43.429 60.3067C46.2393 61.4558 50.0497 61.1925 52.271 59.0939C54.7809 56.4394 54.0282 51.7889 50.6259 50.0916C47.2857 48.449 43.3909 47.8807 40.2383 45.8847C37.7635 44.2975 37.3383 40.8876 39.1261 38.7065C40.8541 36.1547 44.2848 35.2259 47.3776 35.6134Z" fill="#F8FCF9"/>
<path d="M125.551 39.0933C127.591 37.4036 130.655 39.0933 132.741 37.4854C133.123 37.4854 133.892 37.4784 134.274 37.4784C135.289 38.963 136.074 40.5764 136.711 42.2467C134.544 44.0557 132.337 42.2052 130.425 41.0893C130.081 41.1323 129.38 41.1995 129.036 41.2418C129.028 41.7824 129.02 42.3299 129.028 42.8844C131.487 43.924 134.493 44.1873 136.442 46.0739C137.929 47.5432 136.868 49.5392 136.435 51.2171C134.469 52.7835 131.957 53.2132 129.439 52.796C128.535 53.2056 127.579 54.0088 126.509 53.5874C124.73 52.2013 123.579 50.1567 123.655 47.9798C126.368 46.6567 128.462 49.1102 130.874 49.8712C132.654 50.5365 132.259 48.4927 132.467 47.6042C129.932 46.8487 127.362 46.1473 124.985 45.0197C124.716 44.6177 124.178 43.8145 123.91 43.4132C123.878 41.8441 124.213 40.1675 125.551 39.0933Z" fill="#F7FAF9"/>
<path d="M95.9302 41.4282C98.0013 40.2916 100.551 39.0579 102.92 40.2916C107.485 42.6743 108.04 49.1005 105.094 52.8139C103.638 54.9417 100.19 55.5717 98.0155 54.0414C96.7374 53.4315 96.6321 51.4895 97.7771 50.7216C98.8467 50.576 99.9379 50.5137 101.035 50.5282C102.777 48.9757 103.226 46.8134 102.088 44.8104C101.67 44.5394 100.833 43.9995 100.415 43.7285C98.8145 43.7431 96.7838 44.1097 96.4153 45.8354C96.1388 48.1503 96.3256 50.4936 96.4235 52.8209C96.3854 54.1592 97.8586 54.8176 98.5245 55.8648C98.8691 56.9509 97.739 57.6945 97.1485 58.4777C95.7053 59.7613 94.1678 61.645 91.9009 61.085C90.989 59.1791 92.2746 57.1976 92.2148 55.2494C92.0795 52.1223 91.6385 49.0187 91.7297 45.893C91.004 45.5658 90.2812 45.247 89.5689 44.9282C89.5016 44.5394 89.3664 43.7632 89.3073 43.3757C90.7715 41.9078 92.3717 40.2569 94.6738 40.0927C94.9892 40.424 95.6171 41.0955 95.9302 41.4282Z" fill="#F8FCF9"/>
<path d="M110.835 40.6728C113.9 37.8021 119.991 38.3496 121.911 42.1566C122.667 43.6329 123.138 46.1903 121.134 46.9735C118.653 48.1718 115.821 47.819 113.145 47.8398C113.213 48.1933 113.362 48.9141 113.437 49.2675C116.389 51.2913 119.149 48.422 122.235 48.519C122.295 49.3853 122.489 50.2662 122.37 51.1457C121.265 52.9775 118.858 53.4128 116.9 54.0636C113.184 54.1121 109.441 51.9026 108.857 48.3457C107.995 45.6899 108.772 42.6827 110.835 40.6728Z" fill="#F8FBF9"/>
<path d="M75.5271 43.2586C77.4113 40.6041 81.3278 40.444 84.3093 41.2501C88.0165 42.5184 88.7422 46.629 88.6286 49.8428C87.9784 51.721 87.1413 53.8425 85.0784 54.7649C83.0828 55.8468 80.7209 55.4303 78.5302 55.5051C73.7549 53.3213 72.2526 47.1259 75.5271 43.2586Z" fill="#F9FDF8"/>
<path d="M62.5361 42.9738C63.9196 41.8371 65.7949 41.5613 67.5057 41.1039C69.082 41.6153 70.8908 41.9078 72.1016 43.0652C73.006 44.1949 72.7668 45.947 71.346 46.6332C69.3063 45.8701 67.2875 44.8534 65.0146 45.177C63.7372 47.277 63.1677 50.4028 65.546 52.037C68.0857 53.1944 70.479 50.8172 73.1017 51.1915C73.1525 52.4244 73.7811 54.1093 72.3154 54.8779C70.328 56.6383 67.36 56.7409 64.8202 56.2564C59.1959 54.3685 58.0217 46.4259 62.5361 42.9738Z" fill="#F7FCF8"/>
<path d="M113.698 42.5656C115.604 42.1636 118.399 41.7353 118.54 44.2844C116.531 44.818 114.451 45.0793 112.366 45.1777C112.794 44.2982 113.241 43.4319 113.698 42.5656Z" fill="#03080A"/>
<path d="M79.3083 44.5477C80.5781 44.0071 81.984 44.3945 83.3077 44.5546C84.2883 46.3019 85.0649 48.3242 84.2046 50.2725C83.4273 52.6774 79.1812 52.7329 78.3 50.3348C77.9928 48.4074 77.5451 46.0025 79.3083 44.5477Z" fill="#040304"/>
</svg>
