<svg width="107" height="62" viewBox="0 0 107 62" fill="none" xmlns="http://www.w3.org/2000/svg">
<path d="M24.3238 16.1246C14.6275 12.6064 5.98101 8.39287 1.28904 1.48276C0.288073 9.13023 1.94514 15.4715 5.35789 20.8437L21.5839 24.1724L11.8713 28.3858C15.5136 31.6513 19.8449 34.5165 24.5537 37.1288L37.3508 36.7707L31.7068 40.7735C37.9905 43.7861 44.6024 46.4828 50.8533 49.1583C49.5242 51.7075 47.4242 53.5614 44.996 54.1724C45.6687 56.258 46.8009 58.0488 48.2281 59.3549L51.2799 55.0783V61.1246C51.9852 61.3564 52.7399 61.4828 53.4946 61.4828C54.2659 61.4828 55.0044 61.3564 55.7261 61.1246V55.0783L58.7777 59.3549C60.2051 58.0488 61.337 56.258 62.0098 54.1724C59.5817 53.5614 57.4818 51.7075 56.1528 49.1583C62.4039 46.4828 69.0156 43.7861 75.2828 40.7735L69.6555 36.7707L82.4363 37.1288C87.1448 34.5165 91.4927 31.6513 95.135 28.3858L85.4223 24.1724L101.632 20.8437C105.061 15.4715 106.702 9.13023 105.717 1.48276C101.009 8.39287 92.3623 12.6064 82.6824 16.1246C71.1649 20.4645 62.7977 27.9645 57.3507 35.9701C57.3835 35.7173 57.4163 35.4434 57.4163 35.1906C57.4163 32.4097 55.6606 30.1555 53.495 30.1555C51.3459 30.1555 49.5903 32.4097 49.5903 35.1906C49.5903 35.4434 49.6232 35.6962 49.656 35.9701C44.2086 27.9434 35.8413 20.4645 24.3238 16.1246Z" fill="#0274D9" stroke="#5F5555" stroke-width="0.5"/>
</svg>
